<?xml version="1.0" encoding="UTF-8"?>
<svg width="752pt" height="752pt" version="1.1" viewBox="0 0 752 752" xmlns="http://www.w3.org/2000/svg">
 <g fill="#fff">
  <path d="m479.6 376c0 57.215-46.383 103.6-103.6 103.6s-103.59-46.383-103.59-103.6 46.379-103.59 103.59-103.59 103.6 46.379 103.6 103.59"/>
  <path d="m376 257.61c3.9258 0 7.6914-1.5586 10.465-4.332 2.7773-2.7773 4.3359-6.543 4.3359-10.465v-74c0-5.2852-2.8203-10.172-7.3984-12.816-4.582-2.6445-10.223-2.6445-14.801 0-4.5781 2.6445-7.3984 7.5312-7.3984 12.816v74c0 3.9219 1.5586 7.6875 4.332 10.465 2.7773 2.7734 6.543 4.332 10.465 4.332z"/>
  <path d="m271.37 292.24c2.6797 3.1289 6.5469 5 10.668 5.1602 4.1211 0.16016 8.1211-1.4062 11.035-4.3242 2.918-2.9141 4.4844-6.9141 4.3242-11.035-0.16016-4.1211-2.0312-7.9883-5.1602-10.668l-52.242-52.391c-3.7539-3.7539-9.2266-5.2227-14.355-3.8477s-9.1328 5.3789-10.508 10.508 0.09375 10.602 3.8477 14.355z"/>
  <path d="m257.61 376c0-3.9219-1.5586-7.6875-4.332-10.465-2.7773-2.7734-6.543-4.332-10.465-4.332h-74c-5.2852 0-10.172 2.8203-12.816 7.3984-2.6445 4.5781-2.6445 10.219 0 14.801 2.6445 4.5781 7.5312 7.3984 12.816 7.3984h74c3.9219 0 7.6875-1.5586 10.465-4.3359 2.7734-2.7734 4.332-6.5391 4.332-10.465z"/>
  <path d="m271.37 459.77-52.391 52.242c-3.1328 2.6836-5.0039 6.5508-5.1641 10.668-0.15625 4.1211 1.4102 8.1211 4.3242 11.039 2.918 2.9141 6.918 4.4805 11.035 4.3242 4.1211-0.16016 7.9883-2.0312 10.672-5.1641l52.391-52.391c3.2617-3.8086 4.3711-9.0117 2.9492-13.824-1.4219-4.8086-5.1836-8.5703-9.9961-9.9922-4.8086-1.4219-10.012-0.3125-13.82 2.9492z"/>
  <path d="m376 494.4c-3.9219 0-7.6875 1.5586-10.465 4.332-2.7734 2.7773-4.332 6.5391-4.332 10.465v73.996c0 5.2891 2.8203 10.176 7.3984 12.816 4.5781 2.6445 10.219 2.6445 14.801 0 4.5781-2.6406 7.3984-7.5273 7.3984-12.816v-73.996c0-3.9258-1.5586-7.6875-4.3359-10.465-2.7734-2.7734-6.5391-4.332-10.465-4.332z"/>
  <path d="m480.63 459.77c-3.8086-3.2617-9.0117-4.375-13.824-2.9492-4.8086 1.4219-8.5703 5.1836-9.9922 9.9922-1.4258 4.8125-0.3125 10.016 2.9492 13.824l52.391 52.391c3.8086 3.2617 9.0117 4.375 13.824 2.9492 4.8086-1.4219 8.5703-5.1836 9.9922-9.9922 1.4258-4.8125 0.3125-10.016-2.9492-13.824z"/>
  <path d="m583.19 361.2h-73.996c-5.2852 0-10.172 2.8203-12.816 7.3984-2.6445 4.5781-2.6445 10.219 0 14.801 2.6445 4.5781 7.5312 7.3984 12.816 7.3984h73.996c5.2891 0 10.176-2.8203 12.816-7.3984 2.6445-4.582 2.6445-10.223 0-14.801-2.6406-4.5781-7.5273-7.3984-12.816-7.3984z"/>
  <path d="m470.12 296.68c3.9336 0.023438 7.7148-1.5195 10.508-4.2891l52.391-52.391c3.2617-3.8125 4.375-9.0156 2.9492-13.824-1.4219-4.8086-5.1836-8.5742-9.9922-9.9961-4.8125-1.4219-10.016-0.3125-13.824 2.9531l-52.391 52.242c-2.7969 2.7734-4.375 6.5508-4.3789 10.496 0 3.9414 1.5664 7.7227 4.3633 10.5 2.793 2.7812 6.582 4.332 10.523 4.3086z"/>
 </g>
</svg>
